<?xml version="1.0" standalone="no"?>
<!DOCTYPE svg PUBLIC "-//W3C//DTD SVG 20010904//EN"
 "http://www.w3.org/TR/2001/REC-SVG-20010904/DTD/svg10.dtd">
<svg version="1.0" xmlns="http://www.w3.org/2000/svg"
 width="777.000000pt" height="777.000000pt" viewBox="0 0 777.000000 777.000000"
 preserveAspectRatio="xMidYMid meet">
<metadata>
Created by potrace 1.14, written by Peter Selinger 2001-2017
</metadata>
<g transform="translate(0.000000,777.000000) scale(0.100000,-0.100000)"
fill="#000000" stroke="none">
<path d="M2965 6894 c-33 -12 -136 -52 -230 -89 -93 -37 -233 -92 -310 -122
-77 -30 -203 -80 -280 -110 -77 -30 -180 -70 -230 -89 -49 -19 -99 -38 -110
-43 -11 -5 -31 -13 -45 -19 -14 -6 -54 -22 -90 -36 -36 -13 -162 -62 -280
-109 -118 -46 -247 -97 -287 -112 l-71 -28 -71 -126 c-40 -69 -83 -146 -97
-171 -43 -74 -162 -286 -184 -327 -12 -21 -29 -51 -39 -68 -10 -16 -33 -57
-51 -90 -18 -33 -36 -64 -40 -70 -5 -5 -19 -30 -32 -55 -24 -45 -40 -73 -124
-222 -24 -43 -44 -84 -44 -93 0 -15 43 -160 292 -985 44 -146 86 -287 93 -315
8 -27 25 -84 38 -125 14 -41 28 -90 31 -107 4 -18 12 -36 18 -39 5 -3 109 -8
231 -10 122 -2 341 -6 487 -8 l265 -5 135 -139 c74 -77 245 -253 380 -392 135
-138 292 -301 350 -361 l105 -109 643 0 644 0 191 -196 c106 -108 233 -238
282 -289 90 -93 555 -569 829 -850 l146 -150 1 35 c0 19 2 67 4 105 2 39 6
149 10 246 3 97 8 216 10 265 2 49 7 179 11 289 3 110 8 232 9 270 2 39 6 162
10 275 4 113 9 208 12 213 2 4 236 7 519 7 l514 0 1 43 c0 23 2 62 4 87 7 109
24 400 30 508 1 29 4 54 6 56 7 7 294 205 588 406 96 66 177 122 180 126 3 3
6 276 7 607 0 454 -3 611 -12 637 -7 19 -30 91 -52 160 -22 69 -77 240 -122
380 -45 140 -90 278 -99 307 l-16 52 -245 92 c-135 50 -272 101 -305 114 -33
13 -220 82 -415 155 -195 72 -364 136 -375 140 -11 5 -83 32 -160 60 -77 28
-149 55 -160 60 -11 5 -130 50 -265 100 -135 50 -254 95 -265 99 -39 16 -102
41 -295 113 l-195 72 -710 1 c-701 0 -710 0 -770 -21z"/>
</g>
</svg>
